<?xml version="1.0" encoding="UTF-8" standalone="no"?>
<!-- Created with Inkscape (http://www.inkscape.org/) -->

<svg
   version="1.1"
   id="svg2"
   xml:space="preserve"
   width="824.9743"
   height="618.31744"
   viewBox="0 0 824.97427 618.31744"
   sodipodi:docname="caf500a5cb7986d81efb2718e08336c1.ai"
   xmlns:inkscape="http://www.inkscape.org/namespaces/inkscape"
   xmlns:sodipodi="http://sodipodi.sourceforge.net/DTD/sodipodi-0.dtd"
   xmlns="http://www.w3.org/2000/svg"
   xmlns:svg="http://www.w3.org/2000/svg"><defs
     id="defs6"><clipPath
       clipPathUnits="userSpaceOnUse"
       id="clipPath16"><path
         d="M 0,600 H 800 V 0 H 0 Z"
         id="path14" /></clipPath><clipPath
       clipPathUnits="userSpaceOnUse"
       id="clipPath28"><path
         d="M 90.646,343.834 C 89.361,165.299 195.646,69.161 442.718,69.161 v 0 c 142.928,0 268.193,58.837 266.632,217.543 v 0 c -0.256,26.06 -3.484,46.411 -9.382,62.644 v 0 L 645.586,531.84 H 292.845 c -1.203,0.017 -2.411,0.025 -3.61,0.025 v 0 C 182.513,531.868 91.522,465.473 90.646,343.834"
         id="path26" /></clipPath><clipPath
       clipPathUnits="userSpaceOnUse"
       id="clipPath226"><path
         d="m 372.372,423.732 c -1.7,0 -3.198,-1.378 -3.348,-3.078 v 0 L 358.98,305.845 c -0.149,-1.7 1.109,-3.078 2.809,-3.078 v 0 h 189.153 c 1.7,0 3.199,1.378 3.348,3.078 v 0 l 10.044,114.809 c 0.15,1.7 -1.109,3.078 -2.809,3.078 v 0 z"
         id="path224" /></clipPath><clipPath
       clipPathUnits="userSpaceOnUse"
       id="clipPath414"><path
         d="M 90.646,343.834 C 89.361,165.299 195.646,69.161 442.718,69.161 v 0 c 142.928,0 268.193,58.837 266.632,217.543 v 0 c -0.256,26.06 -3.484,46.411 -9.382,62.644 v 0 L 645.586,531.84 H 292.845 c -1.203,0.017 -2.411,0.025 -3.61,0.025 v 0 C 182.513,531.868 91.522,465.473 90.646,343.834"
         id="path412" /></clipPath></defs><sodipodi:namedview
     id="namedview4"
     pagecolor="#ffffff"
     bordercolor="#666666"
     borderopacity="1.0"
     inkscape:pageshadow="2"
     inkscape:pageopacity="0.0"
     inkscape:pagecheckerboard="0" /><g
     id="g8"
     inkscape:groupmode="layer"
     inkscape:label="caf500a5cb7986d81efb2718e08336c1"
     transform="matrix(1.3333333,0,0,-1.3333333,-120.84599,709.15865)"><g
       id="g10"><g
         id="g12"
         clip-path="url(#clipPath16)"><g
           id="g18"
           transform="translate(442.7178,68.1309)"><path
             d="M 0,0 C 142.929,0 268.193,58.968 266.633,218.027 265.072,377.086 153.333,323.93 -1.012,418.907 -155.356,513.884 -350.785,454.216 -352.071,275.285 -353.356,96.353 -247.071,0 0,0"
             style="fill:#ececec;fill-opacity:1;fill-rule:nonzero;stroke:none"
             id="path20" /></g></g></g><g
       id="g22"><g
         id="g24"
         clip-path="url(#clipPath28)"><g
           id="g30"
           transform="translate(79.6396,167.3364)"><path
             d="m 0,0 c 0,0 6.798,-35.727 15.809,-44.263 9.01,-8.536 42.304,-2.845 42.304,-2.845 z"
             style="fill:#5c7c0e;fill-opacity:1;fill-rule:nonzero;stroke:none"
             id="path32" /></g><g
           id="g34"
           transform="translate(177.6504,33.2842)"><path
             d="m 0,0 c 0,0 -9.169,74.614 -17.705,87.893 -4.488,6.981 -80.306,46.159 -80.306,46.159 0,0 11.74,-22.107 30.352,-47.424 C -44.532,55.17 -22.334,72.909 -16.44,67.026 -10.547,61.143 -3.162,0 -3.162,0 Z"
             style="fill:#76a21e;fill-opacity:1;fill-rule:nonzero;stroke:none"
             id="path36" /></g><g
           id="g38"
           transform="translate(133.5605,222.1763)"><path
             d="m 0,0 c 0.953,7.146 6.735,27.994 6.735,27.994 0,0 7.977,-44.965 20.393,-88.683 0,0 -30.642,34.331 -27.128,60.689"
             style="fill:#5c7c0e;fill-opacity:1;fill-rule:nonzero;stroke:none"
             id="path40" /></g><g
           id="g42"
           transform="translate(178.5518,33.2842)"><path
             d="m 0,0 c 0,0 -0.948,93.583 -5.375,109.392 -4.426,15.808 -39.616,79.5 -39.616,79.5 0,0 -6.273,-38.472 -4.647,-51.046 C -46.391,112.747 -9.09,99.749 -6.719,95.243 -4.348,90.738 -2.688,0 -2.688,0 Z"
             style="fill:#76a21e;fill-opacity:1;fill-rule:nonzero;stroke:none"
             id="path44" /></g><g
           id="g46"
           transform="translate(171.998,33.2842)"><path
             d="m 0,0 c 0,0 14.448,94.058 14.448,98.8 0,4.742 -9.484,47.424 0,68.765 9.486,21.341 39.363,59.28 39.363,59.28 0,0 4.742,-48.372 0,-71.136 C 49.068,132.946 18.653,101.171 17.974,96.903 17.294,92.635 4.016,0 4.016,0 Z"
             style="fill:#76a21e;fill-opacity:1;fill-rule:nonzero;stroke:none"
             id="path48" /></g><g
           id="g50"
           transform="translate(265.6572,202.272)"><path
             d="m 0,0 c 0,0 2.096,-28.455 -0.75,-41.259 -2.846,-12.804 -36.99,-22.289 -36.99,-22.289 0,0 31.575,40.31 37.74,63.548"
             style="fill:#5c7c0e;fill-opacity:1;fill-rule:nonzero;stroke:none"
             id="path52" /></g><g
           id="g54"
           transform="translate(176.2246,33.2842)"><path
             d="m 0,0 c 0,0 10.896,78.882 21.572,95.48 10.676,16.599 34.863,31.775 44.347,41.259 9.485,9.485 23.514,32.249 23.514,32.249 0,0 -6.441,-40.785 -14.029,-57.858 C 67.816,94.058 30.092,91.063 24.186,89.79 18.279,88.516 3.319,0 3.319,0 Z"
             style="fill:#76a21e;fill-opacity:1;fill-rule:nonzero;stroke:none"
             id="path56" /></g><g
           id="g58"
           transform="translate(139.9639,87.9751)"><path
             d="M 0,0 5.06,-86.628 H 71.453 L 76.512,0 Z"
             style="fill:#f7f7f7;fill-opacity:1;fill-rule:nonzero;stroke:none"
             id="path60" /></g><g
           id="g62"
           transform="translate(180.5283,1.3467)"><path
             d="m 0,0 h 30.889 l 5.058,86.628 H 22.153 C 18.265,65.002 10.729,28.414 0,0"
             style="fill:#eeeeee;fill-opacity:1;fill-rule:nonzero;stroke:none"
             id="path64" /></g><path
           d="m 164.548,323.31 h 484.59 v 188.261 h -484.59 z"
           style="fill:#ffffff;fill-opacity:1;fill-rule:nonzero;stroke:none"
           id="path66" /><path
           d="M 172.947,503.172 H 640.738 V 331.71 H 172.947 Z"
           style="fill:#dbdbdb;fill-opacity:1;fill-rule:nonzero;stroke:none"
           id="path68" /><path
           d="m 169.259,331.71 h 3.688 v 171.462 h -3.688 z"
           style="fill:#b1baba;fill-opacity:1;fill-rule:nonzero;stroke:none"
           id="path70" /><g
           id="g72"
           transform="translate(637.0498,485.0884)"><path
             d="m 0,0 h -467.791 l 3.688,10.5 H 3.688 Z"
             style="fill:#ffffff;fill-opacity:1;fill-rule:nonzero;stroke:none"
             id="path74" /></g><g
           id="g76"
           transform="translate(637.0498,468.8887)"><path
             d="m 0,0 h -467.791 l 3.688,10.5 H 3.688 Z"
             style="fill:#ffffff;fill-opacity:1;fill-rule:nonzero;stroke:none"
             id="path78" /></g><g
           id="g80"
           transform="translate(637.0498,452.6895)"><path
             d="m 0,0 h -467.791 l 3.688,10.5 H 3.688 Z"
             style="fill:#ffffff;fill-opacity:1;fill-rule:nonzero;stroke:none"
             id="path82" /></g><g
           id="g84"
           transform="translate(637.0498,436.4907)"><path
             d="m 0,0 h -467.791 l 3.688,10.5 H 3.688 Z"
             style="fill:#ffffff;fill-opacity:1;fill-rule:nonzero;stroke:none"
             id="path86" /></g><g
           id="g88"
           transform="translate(637.0498,420.2915)"><path
             d="m 0,0 h -467.791 l 3.688,10.5 H 3.688 Z"
             style="fill:#ffffff;fill-opacity:1;fill-rule:nonzero;stroke:none"
             id="path90" /></g><g
           id="g92"
           transform="translate(637.0498,404.0918)"><path
             d="m 0,0 h -467.791 l 3.688,10.5 H 3.688 Z"
             style="fill:#ffffff;fill-opacity:1;fill-rule:nonzero;stroke:none"
             id="path94" /></g><g
           id="g96"
           transform="translate(637.0498,387.8921)"><path
             d="m 0,0 h -467.791 l 3.688,10.5 H 3.688 Z"
             style="fill:#ffffff;fill-opacity:1;fill-rule:nonzero;stroke:none"
             id="path98" /></g><g
           id="g100"
           transform="translate(637.0498,371.6929)"><path
             d="m 0,0 h -467.791 l 3.688,10.5 H 3.688 Z"
             style="fill:#ffffff;fill-opacity:1;fill-rule:nonzero;stroke:none"
             id="path102" /></g><g
           id="g104"
           transform="translate(637.0498,355.4932)"><path
             d="m 0,0 h -467.791 l 3.688,10.5 H 3.688 Z"
             style="fill:#ffffff;fill-opacity:1;fill-rule:nonzero;stroke:none"
             id="path106" /></g><g
           id="g108"
           transform="translate(637.0498,339.2939)"><path
             d="m 0,0 h -467.791 l 3.688,10.5 H 3.688 Z"
             style="fill:#ffffff;fill-opacity:1;fill-rule:nonzero;stroke:none"
             id="path110" /></g><g
           id="g112"
           transform="translate(179.3193,223.7031)"><path
             d="M 0,0 -5.139,-222.356 H 8.077 L 18.616,0 Z"
             style="fill:#fed190;fill-opacity:1;fill-rule:nonzero;stroke:none"
             id="path114" /></g><g
           id="g116"
           transform="translate(294.8115,223.7031)"><path
             d="M 0,0 5.139,-222.356 H -8.077 L -18.616,0 Z"
             style="fill:#efbd7d;fill-opacity:1;fill-rule:nonzero;stroke:none"
             id="path118" /></g><g
           id="g120"
           transform="translate(518.2256,223.7031)"><path
             d="M 0,0 -5.139,-222.356 H 8.078 L 18.617,0 Z"
             style="fill:#fed190;fill-opacity:1;fill-rule:nonzero;stroke:none"
             id="path122" /></g><g
           id="g124"
           transform="translate(633.7187,223.7031)"><path
             d="M 0,0 5.139,-222.356 H -8.078 L -18.617,0 Z"
             style="fill:#fed190;fill-opacity:1;fill-rule:nonzero;stroke:none"
             id="path126" /></g><g
           id="g128"
           transform="translate(287.4941,293.6245)"><path
             d="m 0,0 v -47.359 c 0,-2.94 2.384,-5.324 5.324,-5.324 h 25.174 c 2.94,0 5.324,2.384 5.324,5.324 V 0 c 0,2.94 -2.384,5.324 -5.324,5.324 H 5.324 C 2.384,5.324 0,2.94 0,0"
             style="fill:#040d11;fill-opacity:1;fill-rule:nonzero;stroke:none"
             id="path130" /></g><g
           id="g132"
           transform="translate(274.1465,293.6245)"><path
             d="m 0,0 v -47.359 c 0,-2.94 2.384,-5.324 5.324,-5.324 h 25.174 c 2.94,0 5.324,2.384 5.324,5.324 V 0 c 0,2.94 -2.384,5.324 -5.324,5.324 H 5.324 C 2.384,5.324 0,2.94 0,0"
             style="fill:#0e1f28;fill-opacity:1;fill-rule:nonzero;stroke:none"
             id="path134" /></g><g
           id="g136"
           transform="translate(292.0576,291.6963)"><path
             d="m 0,0 c -7.562,0 -13.69,-6.129 -13.69,-13.69 0,-7.561 6.128,-13.691 13.69,-13.691 7.561,0 13.69,6.13 13.69,13.691 C 13.69,-6.129 7.561,0 0,0 Z"
             style="fill:none;stroke:#040d11;stroke-width:0.693;stroke-linecap:butt;stroke-linejoin:miter;stroke-miterlimit:10;stroke-dasharray:none;stroke-opacity:1"
             id="path138" /></g><g
           id="g140"
           transform="translate(292.0576,284.3105)"><path
             d="m 0,0 c -3.482,0 -6.305,-2.823 -6.305,-6.305 0,-3.482 2.823,-6.305 6.305,-6.305 3.482,0 6.305,2.823 6.305,6.305 C 6.305,-2.823 3.482,0 0,0"
             style="fill:#040d11;fill-opacity:1;fill-rule:nonzero;stroke:none"
             id="path142" /></g><path
           d="m 284.956,251.8 h 14.203 v 3.936 h -14.203 z"
           style="fill:#ffffff;fill-opacity:1;fill-rule:nonzero;stroke:none"
           id="path144" /><path
           d="m 167.391,214.026 h 478.195 v 26.77 H 167.391 Z"
           style="fill:#fed190;fill-opacity:1;fill-rule:nonzero;stroke:none"
           id="path146" /><g
           id="g148"
           transform="translate(167.3906,240.7959)"><path
             d="M 0,0 339.286,-26.77 V 0 Z"
             style="fill:#efbd7d;fill-opacity:1;fill-rule:nonzero;stroke:none"
             id="path150" /></g><g
           id="g152"
           transform="translate(420.8096,324.959)"><path
             d="m 0,0 14.84,-84.164 h 54.822 c 2.871,0 5.046,2.592 4.547,5.419 L 60.324,0 Z"
             style="fill:#dae1e7;fill-opacity:1;fill-rule:nonzero;stroke:none"
             id="path154" /></g><g
           id="g156"
           transform="translate(415.0225,324.959)"><path
             d="M 0,0 14.841,-84.164 H 75.165 L 60.325,0 Z"
             style="fill:#b0c0cc;fill-opacity:1;fill-rule:nonzero;stroke:none"
             id="path158" /></g><g
           id="g160"
           transform="translate(387.5645,240.7954)"><path
             d="M 0,0 V 0 H 102.623 V 4.881 H 4.881 C 2.185,4.881 0,2.696 0,0"
             style="fill:#dae1e7;fill-opacity:1;fill-rule:nonzero;stroke:none"
             id="path162" /></g><g
           id="g164"
           transform="translate(342.0107,422.1929)"><path
             d="m 0,0 -11.867,-135.648 c -0.372,-4.25 2.771,-7.695 7.021,-7.695 h 185.96 c 10.199,0 19.191,8.268 20.083,18.468 l 9.983,114.103 c 0.892,10.199 -6.653,18.467 -16.852,18.467 H 8.368 C 4.118,7.695 0.372,4.25 0,0"
             style="fill:#b0c0cc;fill-opacity:1;fill-rule:nonzero;stroke:none"
             id="path166" /></g><g
           id="g168"
           transform="translate(332.9082,422.1929)"><path
             d="m 0,0 -11.867,-135.648 c -0.372,-4.25 2.771,-7.695 7.021,-7.695 h 196.733 c 4.25,0 7.996,3.445 8.368,7.695 L 212.122,0 c 0.372,4.25 -2.771,7.695 -7.021,7.695 H 8.368 C 4.118,7.695 0.372,4.25 0,0"
             style="fill:#dae1e7;fill-opacity:1;fill-rule:nonzero;stroke:none"
             id="path170" /></g><g
           id="g172"
           transform="translate(525.3486,302.7671)"><path
             d="m 0,0 h -193.655 c -1.7,0 -2.957,1.378 -2.809,3.078 l 10.045,114.809 c 0.148,1.7 1.648,3.078 3.347,3.078 H 10.583 c 1.7,0 2.957,-1.378 2.809,-3.078 L 3.347,3.078 C 3.198,1.378 1.7,0 0,0"
             style="fill:#ffffff;fill-opacity:1;fill-rule:nonzero;stroke:none"
             id="path174" /></g><g
           id="g176"
           transform="translate(329.5801,313.792)"><path
             d="m 0,0 -0.695,-7.947 c -0.149,-1.7 1.109,-3.078 2.808,-3.078 h 193.656 c 1.7,0 3.198,1.378 3.347,3.078 L 199.811,0 Z"
             style="fill:#ed1c24;fill-opacity:1;fill-rule:nonzero;stroke:none"
             id="path178" /></g><g
           id="g180"
           transform="translate(326.3711,464.5137)"><path
             d="m 0,0 -11.035,-126.129 c -0.391,-4.462 2.91,-8.079 7.372,-8.079 h 64.368 c 4.462,0 8.396,3.617 8.786,8.079 L 80.526,0 c 0.39,4.462 -2.91,8.079 -7.372,8.079 H 8.785 C 4.323,8.079 0.39,4.462 0,0"
             style="fill:#b0ebed;fill-opacity:1;fill-rule:nonzero;stroke:none"
             id="path182" /></g><g
           id="g184"
           transform="translate(330.8916,453.8086)"><path
             d="m 0,0 -2.23,-25.498 c -0.157,-1.785 1.164,-3.231 2.949,-3.231 h 63.147 c 1.785,0 3.359,1.446 3.515,3.231 L 69.611,0 c 0.157,1.785 -1.164,3.231 -2.949,3.231 H 3.515 C 1.729,3.231 0.156,1.785 0,0"
             style="fill:#ffffff;fill-opacity:1;fill-rule:nonzero;stroke:none"
             id="path186" /></g><g
           id="g188"
           transform="translate(327.6289,416.5166)"><path
             d="m 0,0 -0.833,-9.527 c -0.156,-1.785 1.164,-3.231 2.949,-3.231 h 62.436 c 1.785,0 3.358,1.446 3.514,3.231 L 68.9,0 c 0.156,1.785 -1.164,3.231 -2.949,3.231 H 3.515 C 1.73,3.231 0.156,1.785 0,0"
             style="fill:#ffffff;fill-opacity:1;fill-rule:nonzero;stroke:none"
             id="path190" /></g><g
           id="g192"
           transform="translate(394.3945,392.1221)"><path
             d="m 0,0 h -68.899 l 0.141,1.616 h 68.9 z"
             style="fill:#0fabbc;fill-opacity:1;fill-rule:nonzero;stroke:none"
             id="path194" /></g><g
           id="g196"
           transform="translate(393.3828,380.5562)"><path
             d="m 0,0 h -68.899 l 0.14,1.616 H 0.142 Z"
             style="fill:#0fabbc;fill-opacity:1;fill-rule:nonzero;stroke:none"
             id="path198" /></g><g
           id="g200"
           transform="translate(392.3711,368.9902)"><path
             d="m 0,0 h -68.899 l 0.14,1.616 h 68.9 z"
             style="fill:#0fabbc;fill-opacity:1;fill-rule:nonzero;stroke:none"
             id="path202" /></g><g
           id="g204"
           transform="translate(391.3594,357.4243)"><path
             d="m 0,0 h -68.9 l 0.141,1.616 h 68.9 z"
             style="fill:#0fabbc;fill-opacity:1;fill-rule:nonzero;stroke:none"
             id="path206" /></g><g
           id="g208"
           transform="translate(390.3467,345.8584)"><path
             d="m 0,0 h -68.899 l 0.141,1.616 h 68.9 z"
             style="fill:#0fabbc;fill-opacity:1;fill-rule:nonzero;stroke:none"
             id="path210" /></g><g
           id="g212"
           transform="translate(359.375,444.75)"><path
             d="m 0,0 -0.646,-7.381 c -0.133,-1.523 1.432,-2.474 2.817,-1.713 l 6.716,3.691 c 1.384,0.761 1.551,2.664 0.3,3.425 L 3.116,1.713 C 1.865,2.474 0.134,1.522 0,0"
             style="fill:#ed1c24;fill-opacity:1;fill-rule:nonzero;stroke:none"
             id="path214" /></g><g
           id="g216"
           transform="translate(427.9482,296.2158)"><path
             d="m 0,0 c -2.574,0 -4.843,-2.086 -5.068,-4.661 -0.226,-2.573 1.678,-4.66 4.253,-4.66 2.573,0 4.842,2.087 5.067,4.66 C 4.478,-2.086 2.573,0 0,0"
             style="fill:#b0c0cc;fill-opacity:1;fill-rule:nonzero;stroke:none"
             id="path218" /></g></g></g><g
       id="g220"><g
         id="g222"
         clip-path="url(#clipPath226)"><g
           id="g228"
           transform="translate(511.6592,361.5937)"><path
             d="m 0,0 c 0,0 22.506,-13.509 33.786,-31.59 0,0 -4.556,-14.037 -12.526,-12.593 -7.971,1.445 -30.823,13.867 -30.823,13.867 0,0 0.319,18.456 9.563,30.316"
             style="fill:#f7be16;fill-opacity:1;fill-rule:nonzero;stroke:none"
             id="path230" /></g><g
           id="g232"
           transform="translate(462.3643,356.2739)"><path
             d="M 0,0 -32.691,-23.255 -66.731,0 -71.45,-6.741 c 0,0 31.68,-33.029 37.073,-33.702 5.393,-0.675 31.007,13.481 35.051,19.547 C 4.719,-14.829 0,0 0,0"
             style="fill:#ffcfb6;fill-opacity:1;fill-rule:nonzero;stroke:none"
             id="path234" /></g><g
           id="g236"
           transform="translate(395.9697,355.937)"><path
             d="m 0,0 c 0,0 -2.022,5.393 -3.37,6.066 -1.349,0.674 -8.911,4.66 -9.969,5.05 -1.057,0.391 0.369,-3.931 4.143,-5.929 l 4.14,-11.591 z"
             style="fill:#ffcfb6;fill-opacity:1;fill-rule:nonzero;stroke:none"
             id="path238" /></g><g
           id="g240"
           transform="translate(395.9697,355.937)"><path
             d="m 0,0 -9.196,5.187 -10.327,0.181 c 0,0 -7.249,1.186 -9.005,-1.248 l 2.324,-0.488 c 0,0 0.108,-2.332 2.275,-3.295 0,0 1.403,-2.009 2.746,-2.81 1.344,-0.8 4.534,-2.467 5.921,-2.92 1.387,-0.452 10.206,-1.011 10.206,-1.011 z"
             style="fill:#ffcfb6;fill-opacity:1;fill-rule:nonzero;stroke:none"
             id="path242" /></g><g
           id="g244"
           transform="translate(386.7734,361.1245)"><path
             d="M 0,0 C 0,0 -0.751,-4.74 1.396,-8.98 Z"
             style="fill:#ffada5;fill-opacity:1;fill-rule:nonzero;stroke:none"
             id="path246" /></g><g
           id="g248"
           transform="translate(369.7656,359.5688)"><path
             d="M 0,0 10.363,-0.686"
             style="fill:none;stroke:#ffada5;stroke-width:0.192;stroke-linecap:butt;stroke-linejoin:miter;stroke-miterlimit:10;stroke-dasharray:none;stroke-opacity:1"
             id="path250" /></g><g
           id="g252"
           transform="translate(372.041,356.2739)"><path
             d="M 0,0 9.142,0.361"
             style="fill:none;stroke:#ffada5;stroke-width:0.192;stroke-linecap:butt;stroke-linejoin:miter;stroke-miterlimit:10;stroke-dasharray:none;stroke-opacity:1"
             id="path254" /></g><g
           id="g256"
           transform="translate(374.7871,353.4644)"><path
             d="M 0,0 7.505,-0.468"
             style="fill:none;stroke:#ffada5;stroke-width:0.192;stroke-linecap:butt;stroke-linejoin:miter;stroke-miterlimit:10;stroke-dasharray:none;stroke-opacity:1"
             id="path258" /></g><g
           id="g260"
           transform="translate(390.9141,349.5332)"><path
             d="m 0,0 5.056,6.404 6.731,-3.476 c 9.298,-2.273 26.627,-16.421 26.627,-16.421 0,0 14.44,8.785 23.664,16.195 9.226,7.409 12.902,7.827 12.902,7.827 C 81.064,0.206 73.763,-16.4 73.763,-16.4 65.237,-27.239 36.881,-35.189 36.881,-35.189 11.752,-23.48 2.67,-4.694 2.67,-4.694 Z"
             style="fill:#f7be16;fill-opacity:1;fill-rule:nonzero;stroke:none"
             id="path262" /></g><g
           id="g264"
           transform="translate(393.584,344.8389)"><path
             d="m 0,0 c 0,0 17.315,-18.385 34.269,-26.473 0,0 28.091,16.598 41.267,39.868 C 79.704,3.059 71.093,-11.706 71.093,-11.706 62.567,-22.544 34.211,-30.495 34.211,-30.495 9.082,-18.786 0,0 0,0"
             style="fill:#ec9b3b;fill-opacity:1;fill-rule:nonzero;stroke:none"
             id="path266" /></g><g
           id="g268"
           transform="translate(495.5264,361.7783)"><path
             d="m 0,0 c 8.951,0.06 16.133,-0.185 16.133,-0.185 0,0 -8.018,-33.212 -10.039,-41.301 -2.023,-8.088 -4.045,-26.288 -4.045,-26.288 h -46.51 c 0,0 0.674,22.244 4.045,39.095 3.37,16.852 10.784,26.963 10.784,26.963 0,0 23.528,1.675 29.632,1.716"
             style="fill:#ffffff;fill-opacity:1;fill-rule:nonzero;stroke:none"
             id="path270" /></g><g
           id="g272"
           transform="translate(465.8945,360.062)"><path
             d="m 0,0 c 0,0 -7.414,-10.111 -10.784,-26.962 -3.37,-16.852 -4.045,-39.096 -4.045,-39.096 H -0.42 C -0.013,-42.043 7.477,-11.733 10.839,0.734 4.919,0.35 0,0 0,0"
             style="fill:#d3dddd;fill-opacity:1;fill-rule:nonzero;stroke:none"
             id="path274" /></g><g
           id="g276"
           transform="translate(470.3418,346.605)"><path
             d="m 0,0 c 0,0 -8.203,-28.053 -10.598,-52.601 l -13.372,-4.325 c 0,0 1.876,22.783 4.694,33.635 2.817,10.853 8.011,31.455 14.829,36.748 0,0 8.069,2.078 11.895,1.235 C 7.448,14.692 -0.729,7.96 0,0"
             style="fill:#f7be16;fill-opacity:1;fill-rule:nonzero;stroke:none"
             id="path278" /></g><g
           id="g280"
           transform="translate(490.2822,346.605)"><path
             d="m 0,0 c 0,0 -5.967,-33.671 -7.931,-55.771 0,0 8.084,-4.983 17.361,-2.167 0,0 12.67,69.567 11.947,72.927 L 5.244,15.173 C 5.244,15.173 4.261,8.105 0,0"
             style="fill:#f7be16;fill-opacity:1;fill-rule:nonzero;stroke:none"
             id="path282" /></g><g
           id="g284"
           transform="translate(466.5937,349.5332)"><path
             d="m 0,0 -8.392,-2.436 c 2.24,5.788 4.822,10.735 7.693,12.965 0,0 8.069,2.077 11.895,1.235 0,0 -8.177,-6.732 -7.448,-14.692 z"
             style="fill:#ec9b3b;fill-opacity:1;fill-rule:nonzero;stroke:none"
             id="path286" /></g><g
           id="g288"
           transform="translate(490.2822,346.605)"><path
             d="m 0,0 c 4.261,8.105 5.244,15.173 5.244,15.173 l 7.902,-0.09 c 0.795,-3.57 2.088,-9.4 3.068,-13.916 l -9.101,3.2 z"
             style="fill:#ec9b3b;fill-opacity:1;fill-rule:nonzero;stroke:none"
             id="path290" /></g><g
           id="g292"
           transform="translate(494.6201,368.4478)"><path
             d="m 0,0 c 0,0 4.104,-0.752 4.472,-2.113 1.694,-6.273 2.168,-15.85 2.168,-15.85 l -6.369,2.98 c 0,0 -2.154,-3.088 -4.609,-6.86 0,0 2.545,8.697 5.244,15.174 L -16.83,-7.15 c 0,0 -3.847,-6.045 -7.448,-14.693 0,0 -0.142,3.628 -1.004,6.392 l -7.893,-0.762 c 0,0 9.863,13.571 13.632,14.602 1.609,0.441 6.285,1.574 6.285,1.574 z"
             style="fill:#f7be16;fill-opacity:1;fill-rule:nonzero;stroke:none"
             id="path294" /></g><g
           id="g296"
           transform="translate(495.5537,382.3057)"><path
             d="m 0,0 c 0,0 -2.091,-16.018 -0.027,-20.527 0,0 -6.038,-8.113 -14.85,-7.101 0,0 -5.056,0.071 -2.887,6.62 0,0 4.283,2.809 4.944,17.229 z"
             style="fill:#ffcfb6;fill-opacity:1;fill-rule:nonzero;stroke:none"
             id="path298" /></g><g
           id="g300"
           transform="translate(482.7334,378.5264)"><path
             d="m 0,0 12.82,3.779 c 0,0 -0.644,-4.942 -0.864,-10.108 C 6.443,-8.849 2.061,-8.532 -0.823,-7.688 -0.442,-5.63 -0.143,-3.104 0,0"
             style="fill:#ffada5;fill-opacity:1;fill-rule:nonzero;stroke:none"
             id="path302" /></g><g
           id="g304"
           transform="translate(474.8984,388.2144)"><path
             d="M 0,0 C 0,0 -2.683,5.398 -3.72,3.837 -4.757,2.275 -1.332,-6.55 0.913,-6.437 Z"
             style="fill:#ffada5;fill-opacity:1;fill-rule:nonzero;stroke:none"
             id="path306" /></g><g
           id="g308"
           transform="translate(487.0713,408.9727)"><path
             d="m 0,0 c -9.464,0.094 -15.704,-3.174 -14.678,-15.64 1.027,-12.465 4.339,-19.562 7.846,-21.42 3.506,-1.857 13.158,2.891 16.288,9.086 3.129,6.195 4.798,16.37 0.968,22.38 C 6.594,0.417 0,0 0,0"
             style="fill:#ffcfb6;fill-opacity:1;fill-rule:nonzero;stroke:none"
             id="path310" /></g><g
           id="g312"
           transform="translate(488.7969,397.5928)"><path
             d="M 0,0 C 0.404,0.008 0.742,-0.449 0.753,-1.021 0.764,-1.592 0.444,-2.062 0.04,-2.069 -0.365,-2.077 -0.702,-1.62 -0.713,-1.049 -0.724,-0.477 -0.405,-0.008 0,0"
             style="fill:#101011;fill-opacity:1;fill-rule:nonzero;stroke:none"
             id="path314" /></g><g
           id="g316"
           transform="translate(477.4307,397.5928)"><path
             d="M 0,0 C 0.404,0.008 0.741,-0.449 0.752,-1.021 0.764,-1.592 0.444,-2.062 0.039,-2.069 -0.365,-2.077 -0.702,-1.62 -0.714,-1.049 -0.725,-0.477 -0.405,-0.008 0,0"
             style="fill:#101011;fill-opacity:1;fill-rule:nonzero;stroke:none"
             id="path318" /></g><g
           id="g320"
           transform="translate(493.1699,398.6489)"><path
             d="m 0,0 -6.392,1.335 c 0,0 0.544,2.283 1.616,2.277 C -3.704,3.605 0.2,1.993 0,0"
             style="fill:#101011;fill-opacity:1;fill-rule:nonzero;stroke:none"
             id="path322" /></g><g
           id="g324"
           transform="translate(479.0937,400.335)"><path
             d="m 0,0 c 0,0 -2.188,0.316 -4.252,-0.604 0,0 0.301,1.419 1.141,1.965 C -2.271,1.907 -0.399,3.107 0,0"
             style="fill:#101011;fill-opacity:1;fill-rule:nonzero;stroke:none"
             id="path326" /></g><g
           id="g328"
           transform="translate(498.7393,389.9146)"><path
             d="M 0,0 C 0,0 3.931,7.981 5.521,3.391 7.109,-1.2 -0.407,-8.738 -3.33,-7.046 Z"
             style="fill:#ffcfb6;fill-opacity:1;fill-rule:nonzero;stroke:none"
             id="path330" /></g><g
           id="g332"
           transform="translate(498.5898,386.6582)"><path
             d="M 0,0 C 0,0 3.041,6.328 3.48,5.111 3.92,3.894 -1.339,-4.431 0,0"
             style="fill:#ffada5;fill-opacity:1;fill-rule:nonzero;stroke:none"
             id="path334" /></g><g
           id="g336"
           transform="translate(478.8818,384.1978)"><path
             d="m 0,0 c 0,0 7.127,2.166 11.009,1.172 0,0 -2.776,-5.327 -6.597,-5.471 C 0.591,-4.444 0,0 0,0"
             style="fill:#ffffff;fill-opacity:1;fill-rule:nonzero;stroke:none"
             id="path338" /></g><g
           id="g340"
           transform="translate(503.3467,397.1362)"><path
             d="M 0,0 C -4.104,-5.595 -5.409,-12.416 -5.409,-12.416 L -7.143,0.873 c -1.733,1.589 -3.027,5.2 -3.027,5.2 -7.071,0.722 -10.825,4.189 -10.825,4.189 -6.139,-1.514 -8.951,-5.939 -8.951,-5.939 -0.618,-2.198 -0.824,-10.078 -0.824,-10.078 l -1.588,7.268 c 0,0 -3.24,4.993 -0.73,7.147 2.51,2.153 1.969,7.09 3.99,9.257 2.023,2.166 4.845,-0.722 4.845,-0.722 0.218,6.588 4.589,8.181 13.356,4.477 10.254,-4.333 9.647,-4.796 10.399,-9.829 0,0 6.466,-3.706 0.498,-11.843"
             style="fill:#101011;fill-opacity:1;fill-rule:nonzero;stroke:none"
             id="path342" /></g><g
           id="g344"
           transform="translate(495.9482,398.2271)"><path
             d="m 0,0 c 0,0 -5.808,1.859 -11.888,0 0,0 -0.596,-6.925 5.366,-6.925 C -0.561,-6.925 0,0 0,0 Z"
             style="fill:none;stroke:#101011;stroke-width:0.769;stroke-linecap:butt;stroke-linejoin:miter;stroke-miterlimit:10;stroke-dasharray:none;stroke-opacity:1"
             id="path346" /></g><g
           id="g348"
           transform="translate(470.2148,398.2271)"><path
             d="m 0,0 c 0,0 5.434,1.859 11.122,0 0,0 0.558,-6.925 -5.019,-6.925 C 0.525,-6.925 0,0 0,0 Z"
             style="fill:none;stroke:#101011;stroke-width:0.769;stroke-linecap:butt;stroke-linejoin:miter;stroke-miterlimit:10;stroke-dasharray:none;stroke-opacity:1"
             id="path350" /></g><g
           id="g352"
           transform="translate(484.0605,398.2271)"><path
             d="M 0,0 C 0,0 -1.774,1.518 -2.724,0"
             style="fill:none;stroke:#101011;stroke-width:0.769;stroke-linecap:butt;stroke-linejoin:miter;stroke-miterlimit:10;stroke-dasharray:none;stroke-opacity:1"
             id="path354" /></g><g
           id="g356"
           transform="translate(482.1621,396.5635)"><path
             d="m 0,0 c 0,0 -1.732,-5.855 -2.961,-8.222 0,0 1.877,-0.509 2.961,-0.03 1.084,0.479 1.361,1.129 1.361,1.129 0,0 -0.334,4.372 -1.361,7.123"
             style="fill:#ffada5;fill-opacity:1;fill-rule:nonzero;stroke:none"
             id="path358" /></g><g
           id="g360"
           transform="translate(535.0342,317.3853)"><path
             d="m 0,0 c 0,0 10.008,3.679 11.256,14.899 1.249,11.221 5.16,36.735 5.16,36.735 0,0 -8.513,3.679 -12.325,1.424 0,0 -15.105,-31.228 -15.351,-41.865 C -11.507,0.557 0,0 0,0"
             style="fill:#f7be16;fill-opacity:1;fill-rule:nonzero;stroke:none"
             id="path362" /></g><g
           id="g364"
           transform="translate(551.4502,369.019)"><path
             d="M 0,0 C 0,0 -0.171,-1.115 -0.45,-2.964 -1.604,-3.268 -9.975,-5.218 -12.325,1.424 -8.513,3.68 0,0 0,0"
             style="fill:#14122b;fill-opacity:1;fill-rule:nonzero;stroke:none"
             id="path366" /></g><g
           id="g368"
           transform="translate(542.5625,371.397)"><path
             d="m 0,0 c 0,0 -3.157,4.817 -2.904,6.303 0.252,1.486 1.503,9.942 1.812,11.026 0.309,1.084 2.954,-2.619 2.337,-6.844 L 8.153,0.297 Z"
             style="fill:#ffcfb6;fill-opacity:1;fill-rule:nonzero;stroke:none"
             id="path370" /></g><g
           id="g372"
           transform="translate(542.5625,371.397)"><path
             d="m 0,0 1.245,10.485 5.954,8.44 c 0,0 3.325,6.55 6.326,6.529 L 12.546,23.29 c 0,0 1.818,-1.465 1.315,-3.782 0,0 0.793,-2.318 0.646,-3.875 C 14.358,14.076 13.82,10.518 13.366,9.131 12.911,7.744 8.153,0.297 8.153,0.297 Z"
             style="fill:#ffcfb6;fill-opacity:1;fill-rule:nonzero;stroke:none"
             id="path374" /></g><g
           id="g376"
           transform="translate(543.8076,381.8818)"><path
             d="M 0,0 C 0,0 4.269,-2.193 6.422,-6.43 Z"
             style="fill:#ffada5;fill-opacity:1;fill-rule:nonzero;stroke:none"
             id="path378" /></g><g
           id="g380"
           transform="translate(555.1084,394.687)"><path
             d="M 0,0 -5.567,-8.767"
             style="fill:none;stroke:#ffada5;stroke-width:0.192;stroke-linecap:butt;stroke-linejoin:miter;stroke-miterlimit:10;stroke-dasharray:none;stroke-opacity:1"
             id="path382" /></g><g
           id="g384"
           transform="translate(556.4238,390.9053)"><path
             d="M 0,0 -5.69,-7.164"
             style="fill:none;stroke:#ffada5;stroke-width:0.192;stroke-linecap:butt;stroke-linejoin:miter;stroke-miterlimit:10;stroke-dasharray:none;stroke-opacity:1"
             id="path386" /></g><g
           id="g388"
           transform="translate(557.0693,387.0303)"><path
             d="M 0,0 -4.056,-6.333"
             style="fill:none;stroke:#ffada5;stroke-width:0.192;stroke-linecap:butt;stroke-linejoin:miter;stroke-miterlimit:10;stroke-dasharray:none;stroke-opacity:1"
             id="path390" /></g><g
           id="g392"
           transform="translate(541.6387,372.895)"><path
             d="M 0,0 -0.854,-2.894 7.814,-6.02 9.077,-1.201 Z"
             style="fill:#ffcfb6;fill-opacity:1;fill-rule:nonzero;stroke:none"
             id="path394" /></g><g
           id="g396"
           transform="translate(529.4277,348.2725)"><path
             d="m 0,0 c 0,0 -5.233,-10.311 -5.653,-19.694 0,0 -4.187,13.615 3.884,19.694"
             style="fill:none;stroke:#14122b;stroke-width:0.192;stroke-linecap:butt;stroke-linejoin:miter;stroke-miterlimit:10;stroke-dasharray:none;stroke-opacity:1"
             id="path398" /></g><g
           id="g400"
           transform="translate(429.3281,336.0405)"><path
             d="m 0,0 0.287,-13.438 c 0,0 3.875,4.664 0.825,12.556"
             style="fill:none;stroke:#14122b;stroke-width:0.192;stroke-linecap:butt;stroke-linejoin:miter;stroke-miterlimit:10;stroke-dasharray:none;stroke-opacity:1"
             id="path402" /></g><g
           id="g404"
           transform="translate(535.0342,317.3853)"><path
             d="m 0,0 c 2.157,0.341 4.008,1.788 5.526,3.586 2.545,2.34 5.134,5.961 5.73,11.313 0.193,1.735 0.45,3.812 0.746,6.083 C 9.509,14.485 5.609,6.336 1.414,5.218 -5.698,3.322 -28.233,11.402 -28.233,11.402 -21.109,7.698 -7.812,1.059 -2.115,0.026 -1.381,-0.107 -0.676,-0.107 0,0"
             style="fill:#ec9b3b;fill-opacity:1;fill-rule:nonzero;stroke:none"
             id="path406" /></g></g></g><g
       id="g408"><g
         id="g410"
         clip-path="url(#clipPath414)"><g
           id="g416"
           transform="translate(575.4541,440.1357)"><path
             d="m 0,0 -2.329,-26.619 c -0.372,-4.25 -4.118,-7.694 -8.368,-7.694 h -40.435 c -4.249,0 -7.393,3.444 -7.021,7.694 L -55.824,0 c 0.372,4.25 4.118,7.695 8.368,7.695 H -7.021 C -2.772,7.695 0.372,4.25 0,0"
             style="fill:#85dee0;fill-opacity:1;fill-rule:nonzero;stroke:none"
             id="path418" /></g><g
           id="g420"
           transform="translate(517.6172,417.1323)"><path
             d="M 0,0 -1.739,-19.876 17.317,-2.354 Z"
             style="fill:#85dee0;fill-opacity:1;fill-rule:nonzero;stroke:none"
             id="path422" /></g><g
           id="g424"
           transform="translate(530.627,432.0923)"><path
             d="m 0,0 h 32.422 l 0.146,1.676 H 0.146 Z"
             style="fill:#ffffff;fill-opacity:1;fill-rule:nonzero;stroke:none"
             id="path426" /></g><g
           id="g428"
           transform="translate(529.5596,419.8848)"><path
             d="m 0,0 h 32.422 l 0.146,1.676 H 0.146 Z"
             style="fill:#ffffff;fill-opacity:1;fill-rule:nonzero;stroke:none"
             id="path430" /></g><g
           id="g432"
           transform="translate(347.9268,408.4888)"><path
             d="m 0,0 -3.481,-1.75 0.96,3.707 -2.463,2.624 3.768,0.541 L 0.743,8.494 2.112,5.122 5.786,4.581 2.864,1.957 3.175,-1.75 Z"
             style="fill:#feb72b;fill-opacity:1;fill-rule:nonzero;stroke:none"
             id="path434" /></g><g
           id="g436"
           transform="translate(361.2617,408.4888)"><path
             d="m 0,0 -3.481,-1.75 0.96,3.707 -2.463,2.624 3.768,0.541 L 0.743,8.494 2.112,5.122 5.786,4.581 2.863,1.957 3.175,-1.75 Z"
             style="fill:#feb72b;fill-opacity:1;fill-rule:nonzero;stroke:none"
             id="path438" /></g><g
           id="g440"
           transform="translate(374.5967,408.4888)"><path
             d="m 0,0 -3.481,-1.75 0.96,3.707 -2.463,2.624 3.767,0.541 1.96,3.372 L 2.112,5.122 5.786,4.581 2.863,1.957 3.175,-1.75 Z"
             style="fill:#feb72b;fill-opacity:1;fill-rule:nonzero;stroke:none"
             id="path442" /></g><g
           id="g444"
           transform="translate(437.1006,409.1987)"><path
             d="m 0,0 c -10.944,0 -20.593,-8.872 -21.55,-19.816 -0.958,-10.944 7.138,-19.816 18.082,-19.816 10.945,0 20.592,8.872 21.55,19.816 C 19.039,-8.872 10.943,0 0,0"
             style="fill:#feb72b;fill-opacity:1;fill-rule:nonzero;stroke:none"
             id="path446" /></g><g
           id="g448"
           transform="translate(439.7178,382.6431)"><path
             d="m 0,0 c -0.939,-0.856 -2.15,-1.394 -3.634,-1.611 l -0.129,-1.472 c -0.031,-0.358 -0.166,-0.65 -0.403,-0.876 -0.238,-0.226 -0.536,-0.339 -0.894,-0.339 -0.358,0 -0.636,0.113 -0.835,0.339 -0.198,0.226 -0.282,0.518 -0.251,0.876 l 0.125,1.425 c -0.88,0.078 -1.728,0.264 -2.543,0.56 -0.815,0.296 -1.505,0.685 -2.071,1.168 -0.19,0.14 -0.316,0.296 -0.38,0.468 -0.062,0.17 -0.083,0.381 -0.061,0.63 0.029,0.328 0.151,0.615 0.368,0.865 0.216,0.249 0.449,0.373 0.698,0.373 0.156,0 0.297,-0.027 0.425,-0.081 0.128,-0.055 0.295,-0.144 0.502,-0.269 0.676,-0.467 1.351,-0.81 2.024,-1.028 0.674,-0.218 1.393,-0.327 2.156,-0.327 1.044,0 1.867,0.202 2.471,0.608 0.604,0.404 0.939,0.988 1.006,1.752 0.039,0.451 -0.085,0.817 -0.371,1.097 -0.287,0.281 -0.657,0.503 -1.11,0.666 -0.452,0.164 -1.09,0.354 -1.912,0.572 -1.142,0.296 -2.066,0.596 -2.772,0.9 -0.705,0.304 -1.296,0.767 -1.77,1.39 -0.475,0.623 -0.666,1.463 -0.574,2.523 0.111,1.261 0.657,2.336 1.637,3.224 0.982,0.887 2.213,1.44 3.696,1.658 l 0.129,1.472 c 0.032,0.358 0.165,0.65 0.404,0.876 0.237,0.225 0.535,0.338 0.894,0.338 0.358,0 0.636,-0.113 0.834,-0.338 0.198,-0.226 0.282,-0.518 0.251,-0.876 l -0.127,-1.449 c 1.555,-0.202 2.861,-0.77 3.915,-1.705 0.35,-0.28 0.504,-0.646 0.465,-1.098 C 2.135,11.984 2.012,11.696 1.796,11.447 1.579,11.197 1.338,11.073 1.073,11.073 c -0.139,0 -0.274,0.023 -0.402,0.07 -0.128,0.047 -0.295,0.14 -0.501,0.28 -0.6,0.452 -1.173,0.791 -1.722,1.016 -0.549,0.227 -1.212,0.339 -1.991,0.339 -0.966,0 -1.755,-0.214 -2.368,-0.642 C -6.525,11.708 -6.865,11.12 -6.93,10.372 -6.976,9.858 -6.848,9.441 -6.549,9.123 -6.25,8.803 -5.858,8.558 -5.375,8.387 -4.892,8.215 -4.231,8.021 -3.394,7.803 -2.282,7.522 -1.38,7.234 -0.689,6.938 0.001,6.642 0.572,6.194 1.026,5.595 1.48,4.996 1.662,4.182 1.572,3.154 1.463,1.908 0.939,0.856 0,0"
             style="fill:#ffffff;fill-opacity:1;fill-rule:nonzero;stroke:none"
             id="path450" /></g><g
           id="g452"
           transform="translate(480.8555,263.1611)"><path
             d="M 0,0 C -4.103,3.489 -8.006,4.937 -11.334,4.956 H -42.871 L -21.505,-7.54 c 4.181,-2.884 5.787,-3.318 5.787,-3.318 H 15.44 c 0,0 -3.906,1.048 -15.44,10.858"
             style="fill:#ffffff;fill-opacity:1;fill-rule:nonzero;stroke:none"
             id="path454" /></g><g
           id="g456"
           transform="translate(437.9844,268.1172)"><path
             d="m 0,0 c -5.824,-0.157 -9.792,-4.747 -9.792,-10.393 v -16.99 h 31.158 v 14.887 c -2.347,1.621 -5.505,4.012 -9.653,7.54 C 7.454,-1.334 3.409,0.092 0,0"
             style="fill:#b0ebed;fill-opacity:1;fill-rule:nonzero;stroke:none"
             id="path458" /></g><g
           id="g460"
           transform="translate(428.1924,240.7339)"><path
             d="m 0,0 h -47.393 l 27.788,8.531 14.23,-1.388 c 0,0 3.722,-1.812 5.375,-7.143"
             style="fill:#272343;fill-opacity:1;fill-rule:nonzero;stroke:none"
             id="path462" /></g><g
           id="g464"
           transform="translate(428.0937,240.7339)"><path
             d="M 0,0 V 0 H 47.393 V 10.317 H 6.727 C 3.012,10.317 0,5.698 0,0"
             style="fill:#272343;fill-opacity:1;fill-rule:nonzero;stroke:none"
             id="path466" /></g><path
           d="m 475.486,240.734 h 26.389 v 10.317 h -26.389 z"
           style="fill:#e4f9ff;fill-opacity:1;fill-rule:nonzero;stroke:none"
           id="path468" /><g
           id="g470"
           transform="translate(442.4687,257.7241)"><path
             d="m 0,0 c -3.261,0 -5.825,-0.524 -7.827,-1.278 -3.972,-1.495 -6.548,-5.362 -6.548,-9.606 v -6.106 c 0,0 2.79,6.615 14.375,6.615 11.585,0 18.528,-6.615 33.018,-6.615 V -6.615 C 18.528,-6.615 11.585,0 0,0"
             style="fill:#ffffff;fill-opacity:1;fill-rule:nonzero;stroke:none"
             id="path472" /></g><g
           id="g474"
           transform="translate(413.8174,251.5264)"><path
             d="m 0,0 c 11.584,0 14.375,-6.615 14.375,-6.615 v -4.177 c 0,0 -2.791,6.614 -14.375,6.614 -11.585,0 -18.528,-6.614 -33.018,-6.614 v 4.177 C -18.528,-6.615 -11.585,0 0,0"
             style="fill:#ffffff;fill-opacity:1;fill-rule:nonzero;stroke:none"
             id="path476" /></g><g
           id="g478"
           transform="translate(308.3857,38.9058)"><path
             d="M 0,0 16.333,85.01 53.311,75.905 26.257,-4.63 Z"
             style="fill:#ffada5;fill-opacity:1;fill-rule:nonzero;stroke:none"
             id="path480" /></g><g
           id="g482"
           transform="translate(383.5459,178.0088)"><path
             d="m 0,0 c -13.591,10.744 -67.509,32.872 -67.509,32.872 h -90.202 c 0,0 -1.605,-55.502 47.589,-60.66 23.416,-2.454 34.067,-3.055 54.81,-5.624 -10.226,-42.429 -25.021,-112.57 -25.021,-112.57 l 41.466,-5.877 C -16.932,-89.643 11.202,-8.854 0,0"
             style="fill:#23425f;fill-opacity:1;fill-rule:nonzero;stroke:none"
             id="path484" /></g><g
           id="g486"
           transform="translate(303.2129,32.0269)"><path
             d="m 0,0 7.634,-1.082 c 14.338,33.974 40.887,89.47 73.786,124.295 2.101,11.985 2.085,20.262 -1.087,22.769 -13.591,10.743 -67.509,32.872 -67.509,32.872 h -90.202 c 0,0 -1.605,-55.502 47.589,-60.66 23.416,-2.454 34.067,-3.055 54.81,-5.624 C 14.795,70.141 0,0 0,0"
             style="fill:#152f44;fill-opacity:1;fill-rule:nonzero;stroke:none"
             id="path488" /></g><g
           id="g490"
           transform="translate(378.8672,27.3994)"><path
             d="m 0,0 -11.288,124.388 c 0,0 4.622,24.997 38.658,32.458 L 26.662,0 Z"
             style="fill:#ffffff;fill-opacity:1;fill-rule:nonzero;stroke:none"
             id="path492" /></g><g
           id="g494"
           transform="translate(409.627,194.2407)"><path
             d="m 0,0 c -13.592,10.744 -93.59,16.64 -93.59,16.64 h -90.202 c 0,0 -1.605,-55.502 47.589,-60.66 23.416,-2.454 57.447,-2.571 86.685,-2.021 3.943,-51.275 13.358,-132.432 13.358,-132.432 l 41.193,6.023 C 5.033,-107.197 11.201,-8.854 0,0"
             style="fill:#23425f;fill-opacity:1;fill-rule:nonzero;stroke:none"
             id="path496" /></g><g
           id="g498"
           transform="translate(367.5791,151.7876)"><path
             d="m 0,0 26.381,28.627 c 0,0 -50.332,-28.627 -96.078,-19.383 -34.084,6.888 -44.903,35.634 -48.206,49.849 h -23.841 c 0,0 -1.606,-55.502 47.589,-60.659 23.416,-2.455 57.447,-2.572 86.685,-2.022 C -3.527,-54.863 5.888,-136.02 5.888,-136.02 l 27.663,4.045 C 9.567,-94.204 0,0 0,0"
             style="fill:#152f44;fill-opacity:1;fill-rule:nonzero;stroke:none"
             id="path500" /></g><g
           id="g502"
           transform="translate(285.3359,407.7744)"><path
             d="m 0,0 c 0,0 2.469,-7.847 9.567,-16.269 0,0 -1.514,-3.178 -6.93,-2.405 z"
             style="fill:#ffada5;fill-opacity:1;fill-rule:nonzero;stroke:none"
             id="path504" /></g><g
           id="g506"
           transform="translate(233.8555,425.771)"><path
             d="m 0,0 c 11.678,14.782 46.047,14.292 52.194,0 6.147,-14.292 4.656,-63.585 0,-64.557 C 47.538,-65.528 21.612,-72.323 4.019,-48.246 -13.574,-24.169 0,0 0,0"
             style="fill:#ffcfb6;fill-opacity:1;fill-rule:nonzero;stroke:none"
             id="path508" /></g><g
           id="g510"
           transform="translate(277.8437,381.9644)"><path
             d="m 0,0 c 0,0 -11.266,5.918 -8.796,17.562 2.469,11.644 7.978,-2.006 7.978,-2.006 z"
             style="fill:#ffada5;fill-opacity:1;fill-rule:nonzero;stroke:none"
             id="path512" /></g><g
           id="g514"
           transform="translate(244.5303,381.6323)"><path
             d="m 0,0 -7.465,-49.709 c 0,0 19.074,-7.508 34.793,0 v 36.206 z"
             style="fill:#ffcfb6;fill-opacity:1;fill-rule:nonzero;stroke:none"
             id="path516" /></g><g
           id="g518"
           transform="translate(298.3232,423.897)"><path
             d="m 0,0 c -0.047,8.098 -5.247,16.313 -14.243,18.683 -8.997,2.369 -19.446,-2.197 -19.446,-2.197 0,0 -20.895,7.515 -32.101,-2.361 -11.206,-9.877 -11.398,-33.098 -11.398,-33.098 7.027,-9.64 20.814,-35.635 20.814,-35.635 14.118,-3.631 21.56,0.522 21.56,0.522 0,0 5.539,32.717 11.094,32.938 5.556,0.221 6.173,-5.977 6.173,-5.977 l 4.56,15.54 c 1.608,1.026 2.82,2.693 3.726,4.502 C -5.143,-6.535 0.027,-4.876 0,0"
             style="fill:#0e1f28;fill-opacity:1;fill-rule:nonzero;stroke:none"
             id="path520" /></g><g
           id="g522"
           transform="translate(387.2354,275.231)"><path
             d="m 0,0 -41.404,-11.996 c -7.884,13.532 -17.257,29.285 -23.81,39.22 -10.639,16.132 -20.362,26.131 -20.362,26.131 -30.291,-8.172 -18.501,-38.671 -18.501,-38.671 0,0 35.114,-57.341 52.491,-60.347 20.157,-3.487 63.68,32.73 63.68,32.73 0,0 -2.244,10.206 -12.094,12.933"
             style="fill:#ffcfb6;fill-opacity:1;fill-rule:nonzero;stroke:none"
             id="path524" /></g><g
           id="g526"
           transform="translate(345.8311,263.2354)"><path
             d="m 0,0 c -7.884,13.531 -17.257,29.284 -23.81,39.219 -10.638,16.133 -20.362,26.132 -20.362,26.132 -30.291,-8.173 -18.501,-38.672 -18.501,-38.672 0,0 35.114,-57.341 52.491,-60.346 0.701,-0.122 1.431,-0.19 2.185,-0.219 5.377,10.714 7.863,23.266 8.943,34.16 z"
             style="fill:#ffada5;fill-opacity:1;fill-rule:nonzero;stroke:none"
             id="path528" /></g><g
           id="g530"
           transform="translate(280.7764,394.7559)"><path
             d="m 0,0 c 0,0 -3.087,12.874 -5.864,10.168 -2.779,-2.705 -2.16,-18.214 2.931,-22.96 z"
             style="fill:#ffcfb6;fill-opacity:1;fill-rule:nonzero;stroke:none"
             id="path532" /></g><g
           id="g534"
           transform="translate(229.7559,338.3179)"><path
             d="M 0,0 C 0,0 1.995,11.56 20.497,12.983 44.508,14.831 54.709,0 54.709,0 Z"
             style="fill:#3e663d;fill-opacity:1;fill-rule:nonzero;stroke:none"
             id="path536" /></g><g
           id="g538"
           transform="translate(399.3291,262.2983)"><path
             d="m 0,0 c -0.002,-0.001 -58.229,-34.596 -65.477,-3.009 -4.421,19.268 -8.348,-2.224 -10.739,-21.919 4.623,-4.255 8.956,-7.183 12.536,-7.802 C -43.522,-36.217 0,0 0,0"
             style="fill:#ffada5;fill-opacity:1;fill-rule:nonzero;stroke:none"
             id="path540" /></g><g
           id="g542"
           transform="translate(210.9824,317.1953)"><path
             d="m 0,0 c 0.705,12.716 9.789,23.371 22.232,26.083 6.918,1.509 14.581,2.716 21.247,2.667 17.397,-0.129 51.258,-8.302 51.258,-8.302 0,0 8.037,-41.261 11.43,-68.959 2.885,-23.546 19.56,-58.093 19.56,-58.093 -27.085,-24.485 -74.4,-47.428 -111.212,-14.849 0,0 -17.057,75.565 -14.515,121.453"
             style="fill:#5b8c5a;fill-opacity:1;fill-rule:nonzero;stroke:none"
             id="path544" /></g><g
           id="g546"
           transform="translate(317.1494,268.6846)"><path
             d="M 0,0 C -2.188,17.855 -6.304,41.344 -8.953,55.786 L -26.895,31.379 c 0,0 -2.13,-50.329 17.99,-109.353 10.722,5.57 20.474,12.658 28.465,19.881 0,0 -16.675,34.547 -19.56,58.093"
             style="fill:#3e663d;fill-opacity:1;fill-rule:nonzero;stroke:none"
             id="path548" /></g><g
           id="g550"
           transform="translate(305.7197,337.6436)"><path
             d="m 0,0 c 0,0 10.429,-5.198 19.666,-26.131 9.236,-20.933 22.34,-35.618 22.34,-35.618 0,0 -1.522,-28.174 -39.385,-34.585 0,0 -17.36,31.836 -19.371,61.044 C -18.761,-6.082 0,0 0,0"
             style="fill:#5b8c5a;fill-opacity:1;fill-rule:nonzero;stroke:none"
             id="path552" /></g><g
           id="g554"
           transform="translate(387.2354,275.231)"><path
             d="m 0,0 c 0,0 18.215,12.527 20.59,12.527 2.376,0 5.197,-3.287 5.197,-3.287 0,0 2.673,0.601 4.307,0.236 1.633,-0.364 3.268,-4.055 3.268,-4.055 0,0 2.671,-0.021 3.859,-0.912 1.187,-0.891 8.315,-10.039 8.315,-10.039 0,0 -0.599,-0.967 -3.121,-0.512 -2.521,0.454 -6.531,4.374 -6.531,4.374 0,0 -9.144,-7.868 -11.848,-9.458 -2.703,-1.589 -11.942,-1.807 -11.942,-1.807 z"
             style="fill:#ffcfb6;fill-opacity:1;fill-rule:nonzero;stroke:none"
             id="path556" /></g><g
           id="g558"
           transform="translate(301.9346,335.6816)"><path
             d="M 0,0 C 0,0 -11.845,-6.85 -12.965,-25.828"
             style="fill:none;stroke:#3e663d;stroke-width:0.693;stroke-linecap:butt;stroke-linejoin:miter;stroke-miterlimit:10;stroke-dasharray:none;stroke-opacity:1"
             id="path560" /></g><g
           id="g562"
           transform="translate(263.5088,369.811)"><path
             d="m 0,0 c 0,0 5.539,32.717 11.095,32.938 5.555,0.221 6.173,-5.977 6.173,-5.977 L 21.827,42.5 c 1.609,1.027 2.82,2.694 3.727,4.502 4.118,0.549 9.288,2.207 9.26,7.084 -10e-4,0.181 -0.018,0.36 -0.024,0.541 C 30.014,50.893 22.884,52.24 22.884,52.24 15.72,37.637 11.558,44.757 11.558,44.757 c 0,0 -19.753,-20.374 -32.408,-20.937 -12.654,-0.563 -21.523,11.293 -21.523,11.293 7.026,-9.64 20.813,-35.635 20.813,-35.635 C -7.441,-4.153 0,0 0,0"
             style="fill:#040d11;fill-opacity:1;fill-rule:nonzero;stroke:none"
             id="path564" /></g><g
           id="g566"
           transform="translate(253.0303,446.3281)"><path
             d="m 0,0 c -5.592,0 -6.564,-3.891 -6.564,-3.891 h 6.078 c 27.961,0 29.187,-39.506 29.187,-39.506 l 4.557,-0.189 C 30.404,-3.5 7.456,0 0,0"
             style="fill:#272343;fill-opacity:1;fill-rule:nonzero;stroke:none"
             id="path568" /></g><g
           id="g570"
           transform="translate(281.7314,402.9312)"><path
             d="m 0,0 1.703,-0.071 c -4.373,39.967 -25.915,41.352 -33.225,41.352 -1.266,0 -2.285,-0.205 -3.119,-0.513 -0.482,-0.698 -0.625,-1.262 -0.625,-1.262 h 6.079 C -1.227,39.506 0,0 0,0"
             style="fill:#14122b;fill-opacity:1;fill-rule:nonzero;stroke:none"
             id="path572" /></g><g
           id="g574"
           transform="translate(279.0615,405.9126)"><path
             d="m 0,0 h 5.931 c 3.275,0 5.93,-4.853 5.93,-10.838 0,-5.986 -2.655,-10.839 -5.93,-10.839 H 0 c -3.274,0 -5.93,4.853 -5.93,10.839 C -5.93,-4.853 -3.274,0 0,0"
             style="fill:#14122b;fill-opacity:1;fill-rule:nonzero;stroke:none"
             id="path576" /></g><g
           id="g578"
           transform="translate(284.9922,405.9126)"><path
             d="m 0,0 c 3.275,0 5.931,-4.853 5.931,-10.838 0,-5.986 -2.656,-10.839 -5.931,-10.839 -3.275,0 -5.931,4.853 -5.931,10.839 C -5.931,-4.853 -3.275,0 0,0"
             style="fill:#272343;fill-opacity:1;fill-rule:nonzero;stroke:none"
             id="path580" /></g><g
           id="g582"
           transform="translate(284.9922,399.5317)"><path
             d="m 0,0 c 1.347,0 2.439,-1.996 2.439,-4.458 0,-2.461 -1.092,-4.457 -2.439,-4.457 -1.347,0 -2.438,1.996 -2.438,4.457 C -2.438,-1.996 -1.347,0 0,0"
             style="fill:#ffffff;fill-opacity:1;fill-rule:nonzero;stroke:none"
             id="path584" /></g><g
           id="g586"
           transform="translate(196.2617,280.4009)"><path
             d="m 0,0 c 4.43,27.468 95.549,29.281 104.557,0 6.99,-22.725 24.523,-90.567 31.898,-102.212 5.611,-8.861 37.117,-5.315 50.506,-14.472 9.451,-6.464 5.611,-22.743 4.431,-28.945 H 34.557 C 0.886,-145.629 0,0 0,0"
             style="fill:#f7be16;fill-opacity:1;fill-rule:nonzero;stroke:none"
             id="path588" /></g><g
           id="g590"
           transform="translate(383.2227,163.7163)"><path
             d="m 0,0 c -13.389,9.158 -44.895,5.612 -50.506,14.473 -7.375,11.645 -24.908,79.487 -31.898,102.212 -0.823,2.673 -2.336,5.084 -4.399,7.243 -1.898,-2.172 -3.146,-4.586 -3.575,-7.243 0,0 0.886,-145.63 34.557,-145.63 H 4.431 C 5.611,-22.742 9.451,-6.464 0,0"
             style="fill:#ec9b3b;fill-opacity:1;fill-rule:nonzero;stroke:none"
             id="path592" /></g><g
           id="g594"
           transform="translate(239.5859,134.7715)"><path
             d="m 0,0 -21.304,-133.425 h 7.288 L 15.136,0 Z"
             style="fill:#fed190;fill-opacity:1;fill-rule:nonzero;stroke:none"
             id="path596" /></g><g
           id="g598"
           transform="translate(277.3799,134.7715)"><path
             d="M 0,0 -3.083,-133.425 H 4.205 L 15.137,0 Z"
             style="fill:#fed190;fill-opacity:1;fill-rule:nonzero;stroke:none"
             id="path600" /></g><g
           id="g602"
           transform="translate(336.3369,134.7715)"><path
             d="M 0,0 3.084,-133.425 H -4.204 L -15.136,0 Z"
             style="fill:#fed190;fill-opacity:1;fill-rule:nonzero;stroke:none"
             id="path604" /></g><g
           id="g606"
           transform="translate(374.1318,134.7715)"><path
             d="M 0,0 21.303,-133.425 H 14.015 L -15.137,0 Z"
             style="fill:#fed190;fill-opacity:1;fill-rule:nonzero;stroke:none"
             id="path608" /></g><g
           id="g610"
           transform="translate(254.0361,131.6343)"><path
             d="M 0,0 0.686,3.137 H -14.45 l -0.137,-0.855 z"
             style="fill:#efbd7d;fill-opacity:1;fill-rule:nonzero;stroke:none"
             id="path612" /></g><g
           id="g614"
           transform="translate(291.7754,125.731)"><path
             d="M 0,0 0.741,9.041 H -14.396 L -14.552,2.276 Z"
             style="fill:#efbd7d;fill-opacity:1;fill-rule:nonzero;stroke:none"
             id="path616" /></g><g
           id="g618"
           transform="translate(336.709,118.7026)"><path
             d="m 0,0 -0.372,16.069 h -15.136 l 1.132,-13.82 z"
             style="fill:#efbd7d;fill-opacity:1;fill-rule:nonzero;stroke:none"
             id="path620" /></g><g
           id="g622"
           transform="translate(377.7217,112.2871)"><path
             d="M 0,0 -3.59,22.484 H -18.727 L -14.303,2.237 Z"
             style="fill:#efbd7d;fill-opacity:1;fill-rule:nonzero;stroke:none"
             id="path624" /></g><g
           id="g626"
           transform="translate(544.0215,264.3154)"><path
             d="m 0,0 h -23.416 c 0,0 1.286,-9.926 14.667,-20.145 H 0 8.749 C 22.129,-9.926 23.416,0 23.416,0 Z"
             style="fill:#ed1c24;fill-opacity:1;fill-rule:nonzero;stroke:none"
             id="path628" /></g><g
           id="g630"
           transform="translate(562.0674,247.355)"><path
             d="m 0,0 c -2.377,0 -4.877,0.375 -7.341,1.148 l 0.72,2.291 C 0.502,1.203 6.43,2.805 9.141,5.384 c 1.149,1.092 2.371,2.964 1.666,5.679 -0.154,0.588 -0.448,0.771 -0.716,0.874 C 7.819,12.794 1.823,9.656 -1.422,7.473 l -1.341,1.991 c 0.964,0.65 9.537,6.292 13.703,4.72 1.116,-0.424 1.873,-1.294 2.192,-2.518 C 13.91,8.665 13.081,5.816 10.797,3.644 8.292,1.26 4.356,0 0,0"
             style="fill:#cc1220;fill-opacity:1;fill-rule:nonzero;stroke:none"
             id="path632" /></g><g
           id="g634"
           transform="translate(567.4375,264.3154)"><path
             d="m 0,0 h -5.338 c -5.535,-6.235 -14.503,-14.121 -27.612,-19.528 0.26,-0.206 0.515,-0.411 0.785,-0.617 h 8.749 8.749 C -1.287,-9.926 0,0 0,0"
             style="fill:#cc1220;fill-opacity:1;fill-rule:nonzero;stroke:none"
             id="path636" /></g><g
           id="g638"
           transform="translate(544.0215,247.6074)"><path
             d="m 0,0 h -37.568 c 0,0 2.063,-3.387 23.531,-6.874 H 0 14.036 C 35.504,-3.387 37.568,0 37.568,0 Z"
             style="fill:#ed1c24;fill-opacity:1;fill-rule:nonzero;stroke:none"
             id="path640" /></g><g
           id="g642"
           transform="translate(533.5996,167.3364)"><path
             d="m 0,0 c 0,0 6.797,-35.727 15.808,-44.263 9.01,-8.536 42.304,-2.845 42.304,-2.845 z"
             style="fill:#5c7c0e;fill-opacity:1;fill-rule:nonzero;stroke:none"
             id="path644" /></g><g
           id="g646"
           transform="translate(631.6094,33.2842)"><path
             d="m 0,0 c 0,0 -9.169,74.614 -17.705,87.893 -4.488,6.981 -80.305,46.159 -80.305,46.159 0,0 11.739,-22.107 30.351,-47.424 C -44.532,55.17 -22.334,72.909 -16.44,67.026 -10.547,61.143 -3.162,0 -3.162,0 Z"
             style="fill:#76a21e;fill-opacity:1;fill-rule:nonzero;stroke:none"
             id="path648" /></g><g
           id="g650"
           transform="translate(587.5195,222.1763)"><path
             d="m 0,0 c 0.953,7.146 6.735,27.994 6.735,27.994 0,0 7.977,-44.965 20.393,-88.683 0,0 -30.642,34.331 -27.128,60.689"
             style="fill:#5c7c0e;fill-opacity:1;fill-rule:nonzero;stroke:none"
             id="path652" /></g><g
           id="g654"
           transform="translate(632.5107,33.2842)"><path
             d="m 0,0 c 0,0 -0.948,93.583 -5.375,109.392 -4.426,15.808 -39.616,79.5 -39.616,79.5 0,0 -6.273,-38.472 -4.647,-51.046 C -46.391,112.747 -9.09,99.749 -6.719,95.243 -4.348,90.738 -2.688,0 -2.688,0 Z"
             style="fill:#76a21e;fill-opacity:1;fill-rule:nonzero;stroke:none"
             id="path656" /></g><g
           id="g658"
           transform="translate(625.957,33.2842)"><path
             d="m 0,0 c 0,0 14.449,94.058 14.449,98.8 0,4.742 -9.485,47.424 0,68.765 9.485,21.341 39.362,59.28 39.362,59.28 0,0 4.742,-48.372 0,-71.136 C 49.068,132.946 18.653,101.171 17.974,96.903 17.294,92.635 4.016,0 4.016,0 Z"
             style="fill:#76a21e;fill-opacity:1;fill-rule:nonzero;stroke:none"
             id="path660" /></g><g
           id="g662"
           transform="translate(719.6162,202.272)"><path
             d="m 0,0 c 0,0 2.096,-28.455 -0.75,-41.259 -2.846,-12.804 -36.99,-22.289 -36.99,-22.289 0,0 31.575,40.31 37.74,63.548"
             style="fill:#5c7c0e;fill-opacity:1;fill-rule:nonzero;stroke:none"
             id="path664" /></g><g
           id="g666"
           transform="translate(630.1836,33.2842)"><path
             d="m 0,0 c 0,0 10.896,78.882 21.572,95.48 10.676,16.599 34.863,31.775 44.347,41.259 9.485,9.485 23.514,32.249 23.514,32.249 0,0 -6.441,-40.785 -14.029,-57.858 C 67.816,94.058 30.092,91.063 24.186,89.79 18.28,88.516 3.319,0 3.319,0 Z"
             style="fill:#76a21e;fill-opacity:1;fill-rule:nonzero;stroke:none"
             id="path668" /></g><g
           id="g670"
           transform="translate(593.9238,87.9751)"><path
             d="M 0,0 5.059,-86.628 H 71.452 L 76.511,0 Z"
             style="fill:#f7f7f7;fill-opacity:1;fill-rule:nonzero;stroke:none"
             id="path672" /></g><g
           id="g674"
           transform="translate(634.4873,1.3467)"><path
             d="m 0,0 h 30.889 l 5.058,86.628 H 22.153 C 18.265,65.002 10.729,28.414 0,0"
             style="fill:#eeeeee;fill-opacity:1;fill-rule:nonzero;stroke:none"
             id="path676" /></g></g></g></g></svg>
